<svg width="1024" height="1024" viewBox="0 0 1024 1024" fill="none" xmlns="http://www.w3.org/2000/svg">
<g clip-path="url(#clip0_4032_9)">
<path d="M0 512C0 229.23 229.23 0 512 0C794.77 0 1024 229.23 1024 512C1024 794.77 794.77 1024 512 1024C229.23 1024 0 794.77 0 512Z" fill="#574500"/>
<path d="M1024 521.344C1445.52 950.371 1550.02 1059.97 1655.94 1183.52C1754.05 1297.97 1768.91 1476.28 1754.05 1550.25C1743.08 1604.91 1693.62 1717.75 1672.06 1737.32C1661.74 1746.68 1645.09 1768.65 1635.04 1786.13C1609.91 1829.9 1555.5 1875.9 1490.56 1908.27C1442.7 1932.14 1420.85 1937.99 1313.87 1955.61C1165.86 1979.99 1048.68 1982.1 953.788 1962.1C920.757 1955.14 886.271 1944.56 877.153 1938.58C855.514 1924.41 855.218 1892.63 876.353 1852.67L892.128 1822.84L876.301 1795.41C834.788 1723.45 821.195 1609.67 843.76 1523.04C877.306 1394.26 982.762 1291.21 1115.75 1257.26C1199.85 1235.8 1350.92 1251.4 1378.3 1284.38C1388.54 1296.72 1419.16 1297.98 1419.13 1286.06C1419.02 1249.01 1357.89 1207.38 1271.71 1185.66C1171.07 1160.31 1098.27 1168.9 976.379 1220.53C920.02 1251.49 912.468 1257.26 843.547 1314.54C779.843 1376.84 757.181 1394.81 685.976 1439.51C660.2 1455.69 657.225 1460.61 650.659 1497.88C642.483 1544.3 620.964 1590.8 603.28 1600.26C559.671 1623.6 506.465 1613.8 492.399 1579.85C482.888 1556.89 487.62 1483.25 503.441 1408.05C525.478 1303.29 580.129 1174.19 634.547 1093.37C637.621 1095.26 640.765 1096.69 643.999 1097.5C666.605 1103.17 692.13 1081.9 700.034 1089.2C695.845 1069.09 685.449 1029.59 662.523 1056.23C653.318 1066.92 643.935 1079.43 634.547 1093.37C599.074 1071.56 572.938 988.04 525.92 1074.87C502.766 1117.62 484.226 1138.49 476.369 1130.63C471.541 1125.81 461.59 1076.59 453.055 1024H1024V521.344ZM700.034 1089.2C701.846 1097.9 702.499 1102.97 702.499 1097.5C702.499 1093.28 701.621 1090.67 700.034 1089.2ZM1024 521.344C1011.23 508.351 998.178 495.066 984.822 481.479C894.062 399.428 878.972 381.317 893.757 372.181C905.783 364.749 908.169 326.511 897.853 306.562C880.312 272.647 838.095 257.47 727.745 245.41C690.28 241.316 621.922 228.863 575.841 217.738C418.488 179.751 285.085 167.569 223.664 185.577L196.417 193.566L229.165 198.653C293.861 208.703 299.723 239.056 247.997 296.169C203.38 345.432 199.99 353.02 202.486 398.017C204.525 434.77 206.485 438.438 246.123 479.714C310.688 546.946 312.079 587.492 248.998 563.484C193.614 542.406 194.895 542.361 182.755 565.835C165.034 600.1 173.807 616.172 234.993 661.535C303.146 712.064 431.049 747.563 438.239 768.324C445.429 789.085 438.239 832.494 438.239 841.932C438.239 851.369 436.713 855.144 438.239 904.329C438.959 927.515 445.443 977.1 453.055 1024H0V0H1024V521.344ZM123.25 349.5C98.7161 323.312 90.832 329.577 90.832 375.262C90.8321 416.457 104.604 461.949 120.047 471.762C132.706 479.806 137.428 478.349 145.088 464.038C160.977 434.351 150.306 378.38 123.25 349.5ZM433.13 297.348C456.75 270.915 479.779 268.582 505.279 290.038C536.328 316.162 534.767 349.807 501.697 367.212C493.514 371.519 476.062 375.043 462.915 375.043C420.75 375.043 403.623 330.368 433.13 297.348Z" fill="#FFE086"/>
</g>
<defs>
<clipPath id="clip0_4032_9">
<path d="M0 512C0 229.23 229.23 0 512 0C794.77 0 1024 229.23 1024 512C1024 794.77 794.77 1024 512 1024C229.23 1024 0 794.77 0 512Z" fill="white"/>
</clipPath>
</defs>
</svg>
