<svg width="1024" height="1024" viewBox="0 0 1024 1024" fill="none" xmlns="http://www.w3.org/2000/svg">
<g clip-path="url(#clip0_4016_65)">
<path fill-rule="evenodd" clip-rule="evenodd" d="M953.789 1962.1C920.757 1955.14 886.272 1944.56 877.155 1938.58C855.515 1924.41 855.219 1892.63 876.353 1852.67L892.129 1822.84L876.302 1795.41C834.789 1723.45 821.195 1609.67 843.761 1523.04C877.306 1394.26 982.763 1291.21 1115.75 1257.26C1199.85 1235.8 1350.93 1251.4 1378.3 1284.38C1388.54 1296.72 1419.16 1297.98 1419.13 1286.06C1419.02 1249.01 1357.89 1207.38 1271.71 1185.66C1171.07 1160.31 1098.27 1168.9 976.38 1220.53C920.021 1251.49 912.469 1257.26 843.548 1314.54C779.844 1376.84 757.182 1394.81 685.976 1439.51C660.201 1455.69 657.226 1460.61 650.661 1497.88C642.484 1544.3 620.965 1590.8 603.281 1600.26C559.671 1623.6 506.466 1613.8 492.4 1579.85C482.888 1556.89 487.621 1483.25 503.442 1408.05C529.281 1285.22 599.958 1128.91 662.524 1056.23C695.364 1018.07 702.5 1115.62 702.5 1097.5C702.5 1072.27 671.145 1104.31 644 1097.5C603.447 1087.32 577.014 980.515 525.921 1074.87C502.767 1117.62 484.226 1138.49 476.37 1130.63C467.236 1121.5 439.766 953.514 438.24 904.329C436.714 855.144 438.24 851.369 438.24 841.932C438.24 832.495 445.43 789.086 438.24 768.325C431.05 747.563 303.147 712.064 234.994 661.535C173.807 616.172 165.035 600.101 182.755 565.836C194.895 542.361 193.615 542.407 248.999 563.485C312.08 587.493 310.689 546.946 246.124 479.714C206.486 438.439 204.527 434.77 202.488 398.017C199.991 353.02 203.382 345.433 247.998 296.169C299.724 239.056 293.863 208.704 229.166 198.654L196.418 193.566L223.665 185.578C285.086 167.569 418.489 179.752 575.842 217.739C621.924 228.864 690.28 241.316 727.746 245.41C838.096 257.47 880.314 272.647 897.854 306.563C908.17 326.511 905.783 364.749 893.758 372.181C878.973 381.317 894.063 399.428 984.823 481.478C1439.2 943.747 1546.81 1056.23 1655.94 1183.52C1754.06 1297.97 1768.91 1476.28 1754.06 1550.25C1743.08 1604.91 1693.62 1717.75 1672.06 1737.32C1661.74 1746.68 1645.09 1768.65 1635.05 1786.13C1609.91 1829.9 1555.5 1875.9 1490.56 1908.27C1442.7 1932.14 1420.85 1937.99 1313.87 1955.61C1165.87 1979.99 1048.68 1982.1 953.789 1962.1ZM505.281 290.038C536.329 316.162 534.767 349.807 501.698 367.212C493.515 371.519 476.063 375.043 462.916 375.043C420.751 375.043 403.625 330.368 433.131 297.348C456.751 270.916 479.78 268.582 505.281 290.038Z" fill="black"/>
<path d="M120.048 471.762C104.605 461.949 90.833 416.457 90.833 375.262C90.833 329.577 98.7174 323.312 123.251 349.5C150.307 378.38 160.978 434.351 145.089 464.039C137.429 478.35 132.707 479.806 120.048 471.762Z" fill="black"/>
</g>
<defs>
<clipPath id="clip0_4016_65">
<path d="M0 512C0 229.23 229.23 0 512 0V0C794.77 0 1024 229.23 1024 512V512C1024 794.77 794.77 1024 512 1024V1024C229.23 1024 0 794.77 0 512V512Z" fill="white"/>
</clipPath>
</defs>
</svg>
